<?xml version="1.0" standalone="no"?>
<!DOCTYPE svg PUBLIC "-//W3C//DTD SVG 20010904//EN"
 "http://www.w3.org/TR/2001/REC-SVG-20010904/DTD/svg10.dtd">
<svg version="1.0" xmlns="http://www.w3.org/2000/svg"
 width="700.000000pt" height="700.000000pt" viewBox="0 0 700.000000 700.000000"
 preserveAspectRatio="xMidYMid meet">
<metadata>
Created by potrace 1.11, written by Peter Selinger 2001-2013
</metadata>
<g transform="translate(0.000000,700.000000) scale(0.100000,-0.100000)"
fill="#000000" stroke="none">
<path d="M702 5423 l3 -1578 1570 0 1570 1 109 37 c429 147 711 449 762 815
15 109 4 290 -24 412 -73 308 -302 580 -591 702 l-76 31 -1082 1 c-714 1
-1084 -2 -1086 -9 -2 -5 -3 -346 -2 -757 l0 -748 -320 0 -321 0 0 1090 c0 600
2 1090 5 1091 26 5 2685 3 2716 -2 94 -16 260 -73 401 -137 395 -181 699 -442
872 -750 72 -127 112 -240 158 -447 3 -16 8 -122 9 -235 7 -539 -105 -958
-319 -1189 -40 -43 -150 -121 -170 -121 -6 0 9 -12 34 -27 99 -59 216 -161
319 -278 53 -61 179 -252 211 -320 74 -160 94 -215 130 -355 19 -74 22 -89 35
-180 4 -25 9 -58 12 -75 11 -67 9 -324 -3 -400 -21 -129 -24 -144 -55 -238
-65 -200 -203 -435 -358 -612 -95 -108 -279 -279 -386 -360 -66 -49 -121 -93
-123 -97 -2 -5 -8 -8 -13 -8 -5 0 -30 -15 -56 -34 -27 -19 -93 -59 -148 -90
l-100 -56 -1585 0 -1586 0 0 1085 0 1085 440 0 c1296 1 2383 -1 2396 -3 130
-25 246 -129 295 -266 23 -66 26 -87 32 -201 12 -246 -84 -437 -262 -525 l-60
-29 -850 -1 -850 0 0 442 0 441 -30 -13 c-16 -7 -59 -25 -95 -40 -61 -25 -114
-48 -185 -80 -16 -7 -64 -27 -105 -44 -41 -18 -77 -36 -80 -41 -3 -4 -5 -262
-5 -572 l1 -563 1089 -2 1090 -2 93 25 c364 96 658 347 756 644 43 131 49 175
49 330 0 173 -15 254 -74 396 -113 271 -382 492 -719 590 l-95 28 -840 2
c-462 1 -842 2 -845 3 -3 0 -5 114 -5 251 0 182 -3 250 -11 250 -18 0 -477
-199 -484 -210 -3 -5 -6 -73 -5 -150 1 -89 -3 -141 -10 -143 -5 -1 -265 -2
-577 -2 l-568 1 0 -1593 0 -1593 1733 0 c1461 1 1745 3 1817 16 47 8 101 17
120 20 60 9 290 74 395 111 92 33 326 141 420 195 223 128 457 334 611 538
158 208 288 514 334 777 5 35 12 75 15 90 19 113 25 426 11 588 -6 75 -23 192
-41 290 -49 264 -147 523 -270 712 -53 80 -198 239 -253 275 l-23 16 49 98
c144 294 242 613 268 874 12 119 6 421 -10 520 -2 14 -7 52 -11 85 -7 62 -14
116 -20 144 -2 9 -11 52 -20 96 -105 512 -363 916 -748 1173 -157 104 -387
214 -532 253 -16 4 -64 17 -105 29 -91 25 -292 66 -377 75 -35 4 -75 10 -90
13 -16 3 -758 7 -1651 9 l-1622 4 2 -1578z m3276 -117 c97 -49 178 -159 211
-286 26 -102 23 -270 -8 -354 -45 -125 -144 -235 -269 -297 l-67 -34 -745 0
-745 0 -1 490 c0 270 1 493 3 498 2 4 357 7 789 7 l785 0 47 -24z"/>
</g>
</svg>
